<svg width="1440" height="136" viewBox="0 0 1440 136" fill="none" xmlns="http://www.w3.org/2000/svg">
    <path d="M1450 135.127L1409.61 118.36C1369.22 101.592 1288.44 68.0562 1207.67 59.6723C1126.89 51.2884 1046.11 68.0562 965.333 84.824C884.556 101.592 803.778 118.36 723 126.744C642.222 135.127 561.444 135.127 480.667 121.137C399.889 107.356 319.111 79.0601 238.333 73.6629C157.556 68.0562 76.7777 84.824 36.3889 93.2079L-4 101.592V0.984985H36.3889C76.7777 0.984985 157.556 0.984985 238.333 0.984985C319.111 0.984985 399.889 0.984985 480.667 0.984985C561.444 0.984985 642.222 0.984985 723 0.984985C803.778 0.984985 884.556 0.984985 965.333 0.984985C1046.11 0.984985 1126.89 0.984985 1207.67 0.984985C1288.44 0.984985 1369.22 0.984985 1409.61 0.984985H1450V135.127Z" fill="black"/>
</svg>
