<svg id="visual" viewBox="0 0 900 600" width="900" height="600" xmlns="http://www.w3.org/2000/svg" xmlns:xlink="http://www.w3.org/1999/xlink" version="1.1"><path d="M0 558L30 553.3C60 548.7 120 539.3 180 532.7C240 526 300 522 360 526.5C420 531 480 544 540 551.7C600 559.3 660 561.7 720 560.8C780 560 840 556 870 554L900 552L900 601L870 601C840 601 780 601 720 601C660 601 600 601 540 601C480 601 420 601 360 601C300 601 240 601 180 601C120 601 60 601 30 601L0 601Z" fill="#FFF" stroke-linecap="round" stroke-linejoin="miter"></path></svg>