<?xml version="1.0" encoding="UTF-8" standalone="no"?>
<svg
   xmlns:dc="http://purl.org/dc/elements/1.1/"
   xmlns:cc="http://creativecommons.org/ns#"
   xmlns:rdf="http://www.w3.org/1999/02/22-rdf-syntax-ns#"
   xmlns:svg="http://www.w3.org/2000/svg"
   xmlns="http://www.w3.org/2000/svg"
   xmlns:sodipodi="http://sodipodi.sourceforge.net/DTD/sodipodi-0.dtd"
   xmlns:inkscape="http://www.inkscape.org/namespaces/inkscape"
   width="209.25095mm"
   height="38.245987mm"
   viewBox="0 0 209.25095 38.245988"
   version="1.1"
   id="svg8"
   inkscape:version="1.0.1 (c497b03c, 2020-09-10)"
   sodipodi:docname="pattern.svg">
  <defs
     id="defs2" />
  <sodipodi:namedview
     id="base"
     pagecolor="#ffffff"
     bordercolor="#666666"
     borderopacity="1.0"
     inkscape:pageopacity="0.0"
     inkscape:pageshadow="2"
     inkscape:zoom="0.98994949"
     inkscape:cx="366.66029"
     inkscape:cy="-2.6731187"
     inkscape:document-units="mm"
     inkscape:current-layer="layer1"
     inkscape:document-rotation="0"
     showgrid="false"
     inkscape:window-width="1439"
     inkscape:window-height="759"
     inkscape:window-x="0"
     inkscape:window-y="25"
     inkscape:window-maximized="0" />
  <metadata
     id="metadata5">
    <rdf:RDF>
      <cc:Work
         rdf:about="">
        <dc:format>image/svg+xml</dc:format>
        <dc:type
           rdf:resource="http://purl.org/dc/dcmitype/StillImage" />
        <dc:title></dc:title>
      </cc:Work>
    </rdf:RDF>
  </metadata>
  <g
     inkscape:label="Layer 1"
     inkscape:groupmode="layer"
     id="layer1"
     transform="translate(2.2466721,-95.26672)">
    <g
       aria-label="webforge"
       id="text835"
       style="font-style:normal;font-variant:normal;font-weight:normal;font-stretch:normal;font-size:10.5833px;line-height:1.25;font-family:TTFirsNeue-DemiBold;-inkscape-font-specification:TTFirsNeue-DemiBold;fill:#dfdfdf;fill-opacity:1;stroke:none;stroke-width:0.264583"
       transform="matrix(2.1337589,0,0,2.1337589,-116.07286,-129.69036)">
      <path
         d="m 54.879962,115.94288 0.740831,3.91582 h 0.158749 l 0.793748,-3.91582 h 1.904994 l 0.793747,3.91582 h 0.15875 l 0.740831,-3.91582 h 1.534578 l -1.164163,5.39748 h -2.222493 l -0.740831,-3.70415 H 57.47287 l -0.740831,3.70415 h -2.222492 l -1.164163,-5.39748 z"
         style="font-style:normal;font-variant:normal;font-weight:normal;font-stretch:normal;font-family:TTFirsNeue-DemiBold;-inkscape-font-specification:TTFirsNeue-DemiBold;fill:#dfdfdf;fill-opacity:1;stroke-width:0.264583"
         id="path931" />
      <path
         d="m 62.13283,118.64162 q 0,-0.59266 0.222249,-1.11125 0.222249,-0.52916 0.613831,-0.91016 0.391582,-0.39158 0.920747,-0.61383 0.539749,-0.22225 1.15358,-0.22225 0.634998,0 1.15358,0.22225 0.529165,0.22225 0.910163,0.61383 0.380999,0.39158 0.582082,0.91016 0.211666,0.51859 0.211666,1.11125 v 0.3175 h -4.23332 q 0.04233,0.254 0.158749,0.48683 0.127,0.23283 0.306916,0.41275 0.1905,0.16933 0.423332,0.27517 0.232833,0.0952 0.486832,0.0952 0.359832,0 0.582081,-0.0952 0.232833,-0.10584 0.380999,-0.22225 0.15875,-0.13759 0.253999,-0.3175 h 1.587495 q -0.169332,0.52916 -0.529165,0.9525 -0.158749,0.17991 -0.370415,0.34924 -0.211666,0.16934 -0.486832,0.30692 -0.275166,0.13758 -0.634998,0.21167 -0.349249,0.0847 -0.783164,0.0847 -0.613831,0 -1.15358,-0.22225 -0.529165,-0.22225 -0.920747,-0.60325 -0.391582,-0.39158 -0.613831,-0.91016 -0.222249,-0.52916 -0.222249,-1.12183 z m 4.180403,-0.58208 q -0.04233,-0.20108 -0.148166,-0.381 -0.105833,-0.17992 -0.275166,-0.3175 -0.15875,-0.13758 -0.380999,-0.22225 -0.211666,-0.0847 -0.465665,-0.0847 -0.518582,0 -0.867831,0.30691 -0.338665,0.29633 -0.455082,0.6985 z"
         style="font-style:normal;font-variant:normal;font-weight:normal;font-stretch:normal;font-family:TTFirsNeue-DemiBold;-inkscape-font-specification:TTFirsNeue-DemiBold;fill:#dfdfdf;fill-opacity:1;stroke-width:0.264583"
         id="path933" />
      <path
         d="m 68.796174,113.93205 h 1.481662 v 2.69874 h 0.05292 q 0.169333,-0.23283 0.412749,-0.42333 0.211666,-0.15875 0.518582,-0.28575 0.317499,-0.13758 0.761997,-0.13758 0.518582,0 0.96308,0.20108 0.455082,0.20109 0.793748,0.5715 0.338665,0.37042 0.529165,0.89958 0.201083,0.52917 0.201083,1.18533 0,0.65617 -0.201083,1.18533 -0.1905,0.52917 -0.529165,0.89958 -0.338666,0.37042 -0.793748,0.5715 -0.444498,0.20108 -0.96308,0.20108 -0.444498,0 -0.761997,-0.13758 -0.306916,-0.127 -0.518582,-0.28575 -0.243416,-0.1905 -0.412749,-0.42333 h -0.05292 v 0.68791 h -1.481662 z m 1.481662,4.70957 q 0,0.762 0.380998,1.17475 0.391583,0.41275 0.994831,0.41275 0.560915,0 0.941913,-0.41275 0.380999,-0.41275 0.380999,-1.17475 0,-0.762 -0.380999,-1.17475 -0.380998,-0.41274 -0.941913,-0.41274 -0.603248,0 -0.994831,0.41274 -0.380998,0.41275 -0.380998,1.17475 z"
         style="font-style:normal;font-variant:normal;font-weight:normal;font-stretch:normal;font-family:TTFirsNeue-DemiBold;-inkscape-font-specification:TTFirsNeue-DemiBold;fill:#dfdfdf;fill-opacity:1;stroke-width:0.264583"
         id="path935" />
      <path
         d="m 74.987405,116.04871 h 0.687914 v -2.11666 h 3.016241 v 1.27 h -1.534579 v 0.84666 h 1.21708 v 1.27 h -1.21708 v 4.02165 h -1.481662 v -4.02165 h -0.687914 z"
         style="font-style:normal;font-variant:normal;font-weight:normal;font-stretch:normal;font-family:TTFirsNeue-DemiBold;-inkscape-font-specification:TTFirsNeue-DemiBold;fill:#dfdfdf;fill-opacity:1;stroke-width:0.264583"
         id="path937" />
      <path
         d="m 78.896611,118.64162 q 0,-0.59266 0.222249,-1.11125 0.22225,-0.52916 0.613832,-0.91016 0.402165,-0.39158 0.941913,-0.61383 0.550332,-0.22225 1.18533,-0.22225 0.634998,0 1.174746,0.22225 0.539749,0.22225 0.931331,0.61383 0.402165,0.381 0.624414,0.91016 0.232833,0.51859 0.232833,1.11125 0,0.59267 -0.232833,1.12183 -0.222249,0.51858 -0.624414,0.91016 -0.391582,0.381 -0.931331,0.60325 -0.539748,0.22225 -1.174746,0.22225 -0.634998,0 -1.18533,-0.22225 -0.539748,-0.22225 -0.941913,-0.60325 -0.391582,-0.39158 -0.613832,-0.91016 -0.222249,-0.52916 -0.222249,-1.12183 z m 1.534579,0 q 0,0.35983 0.105833,0.65617 0.116416,0.28574 0.306915,0.49741 0.201083,0.20108 0.455082,0.3175 0.264583,0.11642 0.560915,0.11642 0.296332,0 0.550332,-0.11642 0.264582,-0.11642 0.455081,-0.3175 0.201083,-0.21167 0.306916,-0.49741 0.116416,-0.29634 0.116416,-0.65617 0,-0.35983 -0.116416,-0.64558 -0.105833,-0.29633 -0.306916,-0.49742 -0.190499,-0.21166 -0.455081,-0.32808 -0.254,-0.11641 -0.550332,-0.11641 -0.296332,0 -0.560915,0.11641 -0.253999,0.11642 -0.455082,0.32808 -0.190499,0.20109 -0.306915,0.49742 -0.105833,0.28575 -0.105833,0.64558 z"
         style="font-style:normal;font-variant:normal;font-weight:normal;font-stretch:normal;font-family:TTFirsNeue-DemiBold;-inkscape-font-specification:TTFirsNeue-DemiBold;fill:#dfdfdf;fill-opacity:1;stroke-width:0.264583"
         id="path939" />
      <path
         d="m 85.663308,115.94288 h 1.481662 v 0.79375 h 0.05292 q 0.09525,-0.254 0.285749,-0.4445 0.15875,-0.16933 0.423332,-0.30692 0.264583,-0.14816 0.666748,-0.14816 h 0.634998 v 1.42874 H 88.41497 q -0.603248,0 -0.941914,0.32808 -0.328082,0.32809 -0.328082,0.889 v 2.85749 h -1.481662 z"
         style="font-style:normal;font-variant:normal;font-weight:normal;font-stretch:normal;font-family:TTFirsNeue-DemiBold;-inkscape-font-specification:TTFirsNeue-DemiBold;fill:#dfdfdf;fill-opacity:1;stroke-width:0.264583"
         id="path941" />
      <path
         d="m 89.677519,118.5887 q 0,-0.63499 0.190499,-1.14299 0.201083,-0.51858 0.539748,-0.889 0.338666,-0.37041 0.783165,-0.5715 0.455081,-0.20108 0.973663,-0.20108 0.444499,0 0.751414,0.13758 0.317499,0.13759 0.529165,0.29634 0.243416,0.19049 0.412749,0.42333 h 0.05292 v -0.6985 H 95.3925 v 7.40831 h -4.921234 v -1.27 h 3.439573 v -1.54516 h -0.05292 q -0.169333,0.24342 -0.412749,0.43392 -0.211666,0.15875 -0.529165,0.29633 -0.306915,0.127 -0.751414,0.127 -0.518582,0 -0.973663,-0.20108 -0.444499,-0.20109 -0.783165,-0.5715 -0.338665,-0.37042 -0.539748,-0.87842 -0.190499,-0.51858 -0.190499,-1.15358 z m 1.534578,0 q 0,0.71967 0.380999,1.13242 0.391582,0.40216 0.99483,0.40216 0.560915,0 0.941914,-0.40216 0.380999,-0.41275 0.380999,-1.13242 0,-0.71966 -0.380999,-1.12183 -0.380999,-0.41274 -0.941914,-0.41274 -0.603248,0 -0.99483,0.41274 -0.380999,0.40217 -0.380999,1.12183 z"
         style="font-style:normal;font-variant:normal;font-weight:normal;font-stretch:normal;font-family:TTFirsNeue-DemiBold;-inkscape-font-specification:TTFirsNeue-DemiBold;fill:#dfdfdf;fill-opacity:1;stroke-width:0.264583"
         id="path943" />
      <path
         d="m 96.239165,118.64162 q 0,-0.59266 0.222249,-1.11125 0.22225,-0.52916 0.613832,-0.91016 0.391582,-0.39158 0.920747,-0.61383 0.539748,-0.22225 1.15358,-0.22225 0.634998,0 1.153577,0.22225 0.52917,0.22225 0.91017,0.61383 0.38099,0.39158 0.58208,0.91016 0.21166,0.51859 0.21166,1.11125 v 0.3175 h -4.233316 q 0.04233,0.254 0.158749,0.48683 0.127,0.23283 0.306916,0.41275 0.190499,0.16933 0.423332,0.27517 0.232832,0.0952 0.486832,0.0952 0.359832,0 0.582081,-0.0952 0.232833,-0.10584 0.380996,-0.22225 0.15875,-0.13759 0.254,-0.3175 h 1.5875 q -0.16934,0.52916 -0.52917,0.9525 -0.15875,0.17991 -0.37041,0.34924 -0.21167,0.16934 -0.48684,0.30692 -0.27516,0.13758 -0.634993,0.21167 -0.349249,0.0847 -0.783164,0.0847 -0.613832,0 -1.15358,-0.22225 -0.529165,-0.22225 -0.920747,-0.60325 -0.391582,-0.39158 -0.613832,-0.91016 -0.222249,-0.52916 -0.222249,-1.12183 z m 4.180405,-0.58208 q -0.0423,-0.20108 -0.14817,-0.381 -0.10583,-0.17992 -0.275163,-0.3175 -0.15875,-0.13758 -0.380999,-0.22225 -0.211666,-0.0847 -0.465665,-0.0847 -0.518582,0 -0.867831,0.30691 -0.338666,0.29633 -0.455082,0.6985 z"
         style="font-style:normal;font-variant:normal;font-weight:normal;font-stretch:normal;font-family:TTFirsNeue-DemiBold;-inkscape-font-specification:TTFirsNeue-DemiBold;fill:#dfdfdf;fill-opacity:1;stroke-width:0.264583"
         id="path945" />
    </g>
    <g
       aria-label="webforge"
       id="text869"
       style="font-style:normal;font-variant:normal;font-weight:normal;font-stretch:normal;font-size:10.5833px;line-height:1.25;font-family:TTFirsNeue-DemiBold;-inkscape-font-specification:TTFirsNeue-DemiBold;fill:#f1f1f1;fill-opacity:1;stroke:none;stroke-width:0.264584"
       transform="matrix(2.1337589,0,0,2.1337589,-116.07286,-129.69036)">
      <path
         d="m 104.28509,115.94352 0.74084,3.91582 h 0.15874 l 0.79375,-3.91582 h 1.905 l 0.79374,3.91582 h 0.15875 l 0.74083,-3.91582 h 1.53458 l -1.16416,5.39748 h -2.22249 l -0.74083,-3.70415 H 106.878 l -0.74083,3.70415 h -2.22249 l -1.16416,-5.39748 z"
         style="font-style:normal;font-variant:normal;font-weight:normal;font-stretch:normal;font-family:TTFirsNeue-DemiBold;-inkscape-font-specification:TTFirsNeue-DemiBold;fill:#f1f1f1;fill-opacity:1;stroke-width:0.264584"
         id="path948" />
      <path
         d="m 111.53796,118.64226 q 0,-0.59266 0.22225,-1.11124 0.22225,-0.52917 0.61383,-0.91017 0.39158,-0.39158 0.92075,-0.61383 0.53975,-0.22225 1.15358,-0.22225 0.635,0 1.15358,0.22225 0.52916,0.22225 0.91016,0.61383 0.381,0.39158 0.58208,0.91017 0.21167,0.51858 0.21167,1.11124 v 0.3175 h -4.23332 q 0.0423,0.254 0.15875,0.48683 0.127,0.23284 0.30692,0.41275 0.19049,0.16933 0.42333,0.27517 0.23283,0.0952 0.48683,0.0952 0.35983,0 0.58208,-0.0952 0.23283,-0.10584 0.381,-0.22225 0.15875,-0.13758 0.254,-0.3175 h 1.58749 q -0.16933,0.52916 -0.52916,0.9525 -0.15875,0.17991 -0.37042,0.34924 -0.21166,0.16934 -0.48683,0.30692 -0.27516,0.13758 -0.635,0.21167 -0.34925,0.0847 -0.78316,0.0847 -0.61383,0 -1.15358,-0.22225 -0.52917,-0.22225 -0.92075,-0.60324 -0.39158,-0.39159 -0.61383,-0.91017 -0.22225,-0.52916 -0.22225,-1.12183 z m 4.18041,-0.58208 q -0.0423,-0.20108 -0.14817,-0.381 -0.10583,-0.17991 -0.27517,-0.3175 -0.15875,-0.13758 -0.381,-0.22225 -0.21166,-0.0847 -0.46566,-0.0847 -0.51858,0 -0.86783,0.30691 -0.33867,0.29634 -0.45508,0.6985 z"
         style="font-style:normal;font-variant:normal;font-weight:normal;font-stretch:normal;font-family:TTFirsNeue-DemiBold;-inkscape-font-specification:TTFirsNeue-DemiBold;fill:#f1f1f1;fill-opacity:1;stroke-width:0.264584"
         id="path950" />
      <path
         d="m 118.20131,113.93269 h 1.48166 v 2.69875 h 0.0529 q 0.16934,-0.23284 0.41275,-0.42334 0.21167,-0.15875 0.51858,-0.28575 0.3175,-0.13758 0.762,-0.13758 0.51858,0 0.96308,0.20108 0.45508,0.20109 0.79375,0.5715 0.33867,0.37042 0.52917,0.89958 0.20108,0.52917 0.20108,1.18533 0,0.65617 -0.20108,1.18533 -0.1905,0.52917 -0.52917,0.89958 -0.33867,0.37042 -0.79375,0.5715 -0.4445,0.20108 -0.96308,0.20108 -0.4445,0 -0.762,-0.13758 -0.30691,-0.127 -0.51858,-0.28575 -0.24341,-0.1905 -0.41275,-0.42333 h -0.0529 v 0.68791 h -1.48166 z m 1.48166,4.70957 q 0,0.762 0.381,1.17475 0.39158,0.41275 0.99483,0.41275 0.56091,0 0.94191,-0.41275 0.381,-0.41275 0.381,-1.17475 0,-0.762 -0.381,-1.17474 -0.381,-0.41275 -0.94191,-0.41275 -0.60325,0 -0.99483,0.41275 -0.381,0.41274 -0.381,1.17474 z"
         style="font-style:normal;font-variant:normal;font-weight:normal;font-stretch:normal;font-family:TTFirsNeue-DemiBold;-inkscape-font-specification:TTFirsNeue-DemiBold;fill:#f1f1f1;fill-opacity:1;stroke-width:0.264584"
         id="path952" />
      <path
         d="m 124.39254,116.04935 h 0.68791 v -2.11666 h 3.01624 v 1.27 h -1.53458 v 0.84666 h 1.21708 v 1.27 h -1.21708 v 4.02165 h -1.48166 v -4.02165 h -0.68791 z"
         style="font-style:normal;font-variant:normal;font-weight:normal;font-stretch:normal;font-family:TTFirsNeue-DemiBold;-inkscape-font-specification:TTFirsNeue-DemiBold;fill:#f1f1f1;fill-opacity:1;stroke-width:0.264584"
         id="path954" />
      <path
         d="m 128.30174,118.64226 q 0,-0.59266 0.22225,-1.11124 0.22225,-0.52917 0.61383,-0.91017 0.40217,-0.39158 0.94192,-0.61383 0.55033,-0.22225 1.18533,-0.22225 0.635,0 1.17474,0.22225 0.53975,0.22225 0.93133,0.61383 0.40217,0.381 0.62442,0.91017 0.23283,0.51858 0.23283,1.11124 0,0.59267 -0.23283,1.12183 -0.22225,0.51858 -0.62442,0.91017 -0.39158,0.38099 -0.93133,0.60324 -0.53974,0.22225 -1.17474,0.22225 -0.635,0 -1.18533,-0.22225 -0.53975,-0.22225 -0.94192,-0.60324 -0.39158,-0.39159 -0.61383,-0.91017 -0.22225,-0.52916 -0.22225,-1.12183 z m 1.53458,0 q 0,0.35983 0.10583,0.65617 0.11642,0.28575 0.30692,0.49741 0.20108,0.20108 0.45508,0.3175 0.26458,0.11642 0.56092,0.11642 0.29633,0 0.55033,-0.11642 0.26458,-0.11642 0.45508,-0.3175 0.20108,-0.21166 0.30692,-0.49741 0.11641,-0.29634 0.11641,-0.65617 0,-0.35983 -0.11641,-0.64558 -0.10584,-0.29633 -0.30692,-0.49741 -0.1905,-0.21167 -0.45508,-0.32809 -0.254,-0.11641 -0.55033,-0.11641 -0.29634,0 -0.56092,0.11641 -0.254,0.11642 -0.45508,0.32809 -0.1905,0.20108 -0.30692,0.49741 -0.10583,0.28575 -0.10583,0.64558 z"
         style="font-style:normal;font-variant:normal;font-weight:normal;font-stretch:normal;font-family:TTFirsNeue-DemiBold;-inkscape-font-specification:TTFirsNeue-DemiBold;fill:#f1f1f1;fill-opacity:1;stroke-width:0.264584"
         id="path956" />
      <path
         d="m 135.06844,115.94352 h 1.48166 v 0.79375 h 0.0529 q 0.0953,-0.254 0.28575,-0.4445 0.15875,-0.16933 0.42333,-0.30692 0.26458,-0.14816 0.66675,-0.14816 h 0.635 v 1.42874 h -0.79375 q -0.60325,0 -0.94192,0.32809 -0.32808,0.32808 -0.32808,0.88899 v 2.85749 h -1.48166 z"
         style="font-style:normal;font-variant:normal;font-weight:normal;font-stretch:normal;font-family:TTFirsNeue-DemiBold;-inkscape-font-specification:TTFirsNeue-DemiBold;fill:#f1f1f1;fill-opacity:1;stroke-width:0.264584"
         id="path958" />
      <path
         d="m 139.08265,118.58935 q 0,-0.635 0.1905,-1.143 0.20108,-0.51858 0.53975,-0.889 0.33866,-0.37041 0.78316,-0.5715 0.45508,-0.20108 0.97367,-0.20108 0.44449,0 0.75141,0.13758 0.3175,0.13759 0.52917,0.29634 0.24341,0.1905 0.41274,0.42333 h 0.0529 v -0.6985 h 1.48166 v 7.40831 h -4.92123 v -1.27 h 3.43957 v -1.54516 h -0.0529 q -0.16933,0.24342 -0.41274,0.43392 -0.21167,0.15875 -0.52917,0.29633 -0.30692,0.127 -0.75141,0.127 -0.51859,0 -0.97367,-0.20108 -0.4445,-0.20109 -0.78316,-0.5715 -0.33867,-0.37042 -0.53975,-0.87841 -0.1905,-0.51859 -0.1905,-1.15358 z m 1.53458,0 q 0,0.71966 0.381,1.13241 0.39158,0.40216 0.99483,0.40216 0.56091,0 0.94191,-0.40216 0.381,-0.41275 0.381,-1.13241 0,-0.71967 -0.381,-1.12183 -0.381,-0.41275 -0.94191,-0.41275 -0.60325,0 -0.99483,0.41275 -0.381,0.40216 -0.381,1.12183 z"
         style="font-style:normal;font-variant:normal;font-weight:normal;font-stretch:normal;font-family:TTFirsNeue-DemiBold;-inkscape-font-specification:TTFirsNeue-DemiBold;fill:#f1f1f1;fill-opacity:1;stroke-width:0.264584"
         id="path960" />
      <path
         d="m 145.6443,118.64226 q 0,-0.59266 0.22225,-1.11124 0.22225,-0.52917 0.61383,-0.91017 0.39158,-0.39158 0.92075,-0.61383 0.53974,-0.22225 1.15357,-0.22225 0.635,0 1.15358,0.22225 0.52917,0.22225 0.91017,0.61383 0.381,0.39158 0.58208,0.91017 0.21167,0.51858 0.21167,1.11124 v 0.3175 h -4.23332 q 0.0423,0.254 0.15875,0.48683 0.12699,0.23284 0.30691,0.41275 0.1905,0.16933 0.42333,0.27517 0.23284,0.0952 0.48683,0.0952 0.35984,0 0.58209,-0.0952 0.23283,-0.10584 0.381,-0.22225 0.15874,-0.13758 0.25399,-0.3175 h 1.5875 q -0.16933,0.52916 -0.52917,0.9525 -0.15875,0.17991 -0.37041,0.34924 -0.21167,0.16934 -0.48683,0.30692 -0.27517,0.13758 -0.635,0.21167 -0.34925,0.0847 -0.78317,0.0847 -0.61383,0 -1.15357,-0.22225 -0.52917,-0.22225 -0.92075,-0.60324 -0.39158,-0.39159 -0.61383,-0.91017 -0.22225,-0.52916 -0.22225,-1.12183 z m 4.1804,-0.58208 q -0.0423,-0.20108 -0.14817,-0.381 -0.10583,-0.17991 -0.27516,-0.3175 -0.15875,-0.13758 -0.381,-0.22225 -0.21167,-0.0847 -0.46567,-0.0847 -0.51858,0 -0.86783,0.30691 -0.33866,0.29634 -0.45508,0.6985 z"
         style="font-style:normal;font-variant:normal;font-weight:normal;font-stretch:normal;font-family:TTFirsNeue-DemiBold;-inkscape-font-specification:TTFirsNeue-DemiBold;fill:#f1f1f1;fill-opacity:1;stroke-width:0.264584"
         id="path962" />
    </g>
    <g
       aria-label="webforge"
       id="text873"
       style="font-style:normal;font-variant:normal;font-weight:normal;font-stretch:normal;font-size:10.5833px;line-height:1.25;font-family:TTFirsNeue-DemiBold;-inkscape-font-specification:TTFirsNeue-DemiBold;fill:#f1f1f1;fill-opacity:1;stroke:none;stroke-width:0.264583"
       transform="matrix(2.1337589,0,0,2.1337589,-116.07286,-129.69036)">
      <path
         d="m 54.879962,107.43842 0.740831,3.91583 h 0.158749 l 0.793748,-3.91583 h 1.904994 l 0.793747,3.91583 h 0.15875 l 0.740831,-3.91583 h 1.534578 l -1.164163,5.39749 h -2.222493 l -0.740831,-3.70416 H 57.47287 l -0.740831,3.70416 h -2.222492 l -1.164163,-5.39749 z"
         style="font-style:normal;font-variant:normal;font-weight:normal;font-stretch:normal;font-family:TTFirsNeue-DemiBold;-inkscape-font-specification:TTFirsNeue-DemiBold;fill:#f1f1f1;fill-opacity:1;stroke-width:0.264583"
         id="path965" />
      <path
         d="m 62.13283,110.13717 q 0,-0.59267 0.222249,-1.11125 0.222249,-0.52917 0.613831,-0.91016 0.391582,-0.39159 0.920747,-0.61384 0.539749,-0.22225 1.15358,-0.22225 0.634998,0 1.15358,0.22225 0.529165,0.22225 0.910163,0.61384 0.380999,0.39158 0.582082,0.91016 0.211666,0.51858 0.211666,1.11125 v 0.31749 h -4.23332 q 0.04233,0.254 0.158749,0.48684 0.127,0.23283 0.306916,0.41275 0.1905,0.16933 0.423332,0.27516 0.232833,0.0953 0.486832,0.0953 0.359832,0 0.582081,-0.0953 0.232833,-0.10583 0.380999,-0.22225 0.15875,-0.13758 0.253999,-0.3175 h 1.587495 q -0.169332,0.52917 -0.529165,0.9525 -0.158749,0.17992 -0.370415,0.34925 -0.211666,0.16933 -0.486832,0.30691 -0.275166,0.13759 -0.634998,0.21167 -0.349249,0.0847 -0.783164,0.0847 -0.613831,0 -1.15358,-0.22225 -0.529165,-0.22225 -0.920747,-0.60325 -0.391582,-0.39158 -0.613831,-0.91016 -0.222249,-0.52917 -0.222249,-1.12183 z m 4.180403,-0.58209 q -0.04233,-0.20108 -0.148166,-0.38099 -0.105833,-0.17992 -0.275166,-0.3175 -0.15875,-0.13759 -0.380999,-0.22225 -0.211666,-0.0847 -0.465665,-0.0847 -0.518582,0 -0.867831,0.30692 -0.338665,0.29633 -0.455082,0.69849 z"
         style="font-style:normal;font-variant:normal;font-weight:normal;font-stretch:normal;font-family:TTFirsNeue-DemiBold;-inkscape-font-specification:TTFirsNeue-DemiBold;fill:#f1f1f1;fill-opacity:1;stroke-width:0.264583"
         id="path967" />
      <path
         d="m 68.796174,105.4276 h 1.481662 v 2.69874 h 0.05292 q 0.169333,-0.23283 0.412749,-0.42333 0.211666,-0.15875 0.518582,-0.28575 0.317499,-0.13759 0.761997,-0.13759 0.518582,0 0.96308,0.20109 0.455082,0.20108 0.793748,0.5715 0.338665,0.37041 0.529165,0.89958 0.201083,0.52916 0.201083,1.18533 0,0.65616 -0.201083,1.18533 -0.1905,0.52916 -0.529165,0.89958 -0.338666,0.37041 -0.793748,0.57149 -0.444498,0.20109 -0.96308,0.20109 -0.444498,0 -0.761997,-0.13759 -0.306916,-0.127 -0.518582,-0.28575 -0.243416,-0.19049 -0.412749,-0.42333 h -0.05292 v 0.68792 h -1.481662 z m 1.481662,4.70957 q 0,0.76199 0.380998,1.17474 0.391583,0.41275 0.994831,0.41275 0.560915,0 0.941913,-0.41275 0.380999,-0.41275 0.380999,-1.17474 0,-0.762 -0.380999,-1.17475 -0.380998,-0.41275 -0.941913,-0.41275 -0.603248,0 -0.994831,0.41275 -0.380998,0.41275 -0.380998,1.17475 z"
         style="font-style:normal;font-variant:normal;font-weight:normal;font-stretch:normal;font-family:TTFirsNeue-DemiBold;-inkscape-font-specification:TTFirsNeue-DemiBold;fill:#f1f1f1;fill-opacity:1;stroke-width:0.264583"
         id="path969" />
      <path
         d="m 74.987405,107.54426 h 0.687914 v -2.11666 h 3.016241 v 1.26999 h -1.534579 v 0.84667 h 1.21708 v 1.26999 h -1.21708 v 4.02166 h -1.481662 v -4.02166 h -0.687914 z"
         style="font-style:normal;font-variant:normal;font-weight:normal;font-stretch:normal;font-family:TTFirsNeue-DemiBold;-inkscape-font-specification:TTFirsNeue-DemiBold;fill:#f1f1f1;fill-opacity:1;stroke-width:0.264583"
         id="path971" />
      <path
         d="m 78.896611,110.13717 q 0,-0.59267 0.222249,-1.11125 0.22225,-0.52917 0.613832,-0.91016 0.402165,-0.39159 0.941913,-0.61384 0.550332,-0.22225 1.18533,-0.22225 0.634998,0 1.174746,0.22225 0.539749,0.22225 0.931331,0.61384 0.402165,0.38099 0.624414,0.91016 0.232833,0.51858 0.232833,1.11125 0,0.59266 -0.232833,1.12183 -0.222249,0.51858 -0.624414,0.91016 -0.391582,0.381 -0.931331,0.60325 -0.539748,0.22225 -1.174746,0.22225 -0.634998,0 -1.18533,-0.22225 -0.539748,-0.22225 -0.941913,-0.60325 -0.391582,-0.39158 -0.613832,-0.91016 -0.222249,-0.52917 -0.222249,-1.12183 z m 1.534579,0 q 0,0.35983 0.105833,0.65616 0.116416,0.28575 0.306915,0.49742 0.201083,0.20108 0.455082,0.31749 0.264583,0.11642 0.560915,0.11642 0.296332,0 0.550332,-0.11642 0.264582,-0.11641 0.455081,-0.31749 0.201083,-0.21167 0.306916,-0.49742 0.116416,-0.29633 0.116416,-0.65616 0,-0.35984 -0.116416,-0.64559 -0.105833,-0.29633 -0.306916,-0.49741 -0.190499,-0.21167 -0.455081,-0.32808 -0.254,-0.11642 -0.550332,-0.11642 -0.296332,0 -0.560915,0.11642 -0.253999,0.11641 -0.455082,0.32808 -0.190499,0.20108 -0.306915,0.49741 -0.105833,0.28575 -0.105833,0.64559 z"
         style="font-style:normal;font-variant:normal;font-weight:normal;font-stretch:normal;font-family:TTFirsNeue-DemiBold;-inkscape-font-specification:TTFirsNeue-DemiBold;fill:#f1f1f1;fill-opacity:1;stroke-width:0.264583"
         id="path973" />
      <path
         d="m 85.663308,107.43842 h 1.481662 v 0.79375 h 0.05292 q 0.09525,-0.254 0.285749,-0.4445 0.15875,-0.16933 0.423332,-0.30691 0.264583,-0.14817 0.666748,-0.14817 h 0.634998 v 1.42875 H 88.41497 q -0.603248,0 -0.941914,0.32808 -0.328082,0.32808 -0.328082,0.889 v 2.85749 h -1.481662 z"
         style="font-style:normal;font-variant:normal;font-weight:normal;font-stretch:normal;font-family:TTFirsNeue-DemiBold;-inkscape-font-specification:TTFirsNeue-DemiBold;fill:#f1f1f1;fill-opacity:1;stroke-width:0.264583"
         id="path975" />
      <path
         d="m 89.677519,110.08425 q 0,-0.635 0.190499,-1.143 0.201083,-0.51858 0.539748,-0.88899 0.338666,-0.37042 0.783165,-0.5715 0.455081,-0.20109 0.973663,-0.20109 0.444499,0 0.751414,0.13759 0.317499,0.13758 0.529165,0.29633 0.243416,0.1905 0.412749,0.42333 h 0.05292 v -0.6985 H 95.3925 v 7.40831 h -4.921234 v -1.26999 h 3.439573 v -1.54516 h -0.05292 q -0.169333,0.24341 -0.412749,0.43391 -0.211666,0.15875 -0.529165,0.29633 -0.306915,0.127 -0.751414,0.127 -0.518582,0 -0.973663,-0.20108 -0.444499,-0.20108 -0.783165,-0.5715 -0.338665,-0.37041 -0.539748,-0.87841 -0.190499,-0.51858 -0.190499,-1.15358 z m 1.534578,0 q 0,0.71966 0.380999,1.13241 0.391582,0.40217 0.99483,0.40217 0.560915,0 0.941914,-0.40217 0.380999,-0.41275 0.380999,-1.13241 0,-0.71967 -0.380999,-1.12183 -0.380999,-0.41275 -0.941914,-0.41275 -0.603248,0 -0.99483,0.41275 -0.380999,0.40216 -0.380999,1.12183 z"
         style="font-style:normal;font-variant:normal;font-weight:normal;font-stretch:normal;font-family:TTFirsNeue-DemiBold;-inkscape-font-specification:TTFirsNeue-DemiBold;fill:#f1f1f1;fill-opacity:1;stroke-width:0.264583"
         id="path977" />
      <path
         d="m 96.239165,110.13717 q 0,-0.59267 0.222249,-1.11125 0.22225,-0.52917 0.613832,-0.91016 0.391582,-0.39159 0.920747,-0.61384 0.539748,-0.22225 1.15358,-0.22225 0.634998,0 1.153577,0.22225 0.52917,0.22225 0.91017,0.61384 0.38099,0.39158 0.58208,0.91016 0.21166,0.51858 0.21166,1.11125 v 0.31749 h -4.233316 q 0.04233,0.254 0.158749,0.48684 0.127,0.23283 0.306916,0.41275 0.190499,0.16933 0.423332,0.27516 0.232832,0.0953 0.486832,0.0953 0.359832,0 0.582081,-0.0953 0.232833,-0.10583 0.380996,-0.22225 0.15875,-0.13758 0.254,-0.3175 h 1.5875 q -0.16934,0.52917 -0.52917,0.9525 -0.15875,0.17992 -0.37041,0.34925 -0.21167,0.16933 -0.48684,0.30691 -0.27516,0.13759 -0.634993,0.21167 -0.349249,0.0847 -0.783164,0.0847 -0.613832,0 -1.15358,-0.22225 -0.529165,-0.22225 -0.920747,-0.60325 -0.391582,-0.39158 -0.613832,-0.91016 -0.222249,-0.52917 -0.222249,-1.12183 z m 4.180405,-0.58209 q -0.0423,-0.20108 -0.14817,-0.38099 -0.10583,-0.17992 -0.275163,-0.3175 -0.15875,-0.13759 -0.380999,-0.22225 -0.211666,-0.0847 -0.465665,-0.0847 -0.518582,0 -0.867831,0.30692 -0.338666,0.29633 -0.455082,0.69849 z"
         style="font-style:normal;font-variant:normal;font-weight:normal;font-stretch:normal;font-family:TTFirsNeue-DemiBold;-inkscape-font-specification:TTFirsNeue-DemiBold;fill:#f1f1f1;fill-opacity:1;stroke-width:0.264583"
         id="path979" />
    </g>
    <g
       aria-label="webforge"
       id="text877"
       style="font-style:normal;font-variant:normal;font-weight:normal;font-stretch:normal;font-size:10.5833px;line-height:1.25;font-family:TTFirsNeue-DemiBold;-inkscape-font-specification:TTFirsNeue-DemiBold;fill:#dfdfdf;fill-opacity:1;stroke:none;stroke-width:0.264584"
       transform="matrix(2.1337589,0,0,2.1337589,-116.07286,-129.69036)">
      <path
         d="m 104.28509,107.43907 0.74084,3.91582 h 0.15874 l 0.79375,-3.91582 h 1.905 l 0.79374,3.91582 h 0.15875 l 0.74083,-3.91582 h 1.53458 l -1.16416,5.39748 h -2.22249 l -0.74083,-3.70416 H 106.878 l -0.74083,3.70416 h -2.22249 l -1.16416,-5.39748 z"
         style="font-style:normal;font-variant:normal;font-weight:normal;font-stretch:normal;font-family:TTFirsNeue-DemiBold;-inkscape-font-specification:TTFirsNeue-DemiBold;fill:#dfdfdf;fill-opacity:1;stroke-width:0.264584"
         id="path982" />
      <path
         d="m 111.53796,110.13781 q 0,-0.59267 0.22225,-1.11125 0.22225,-0.52916 0.61383,-0.91016 0.39158,-0.39159 0.92075,-0.61384 0.53975,-0.22224 1.15358,-0.22224 0.635,0 1.15358,0.22224 0.52916,0.22225 0.91016,0.61384 0.381,0.39158 0.58208,0.91016 0.21167,0.51858 0.21167,1.11125 v 0.3175 h -4.23332 q 0.0423,0.25399 0.15875,0.48683 0.127,0.23283 0.30692,0.41275 0.19049,0.16933 0.42333,0.27516 0.23283,0.0953 0.48683,0.0953 0.35983,0 0.58208,-0.0953 0.23283,-0.10583 0.381,-0.22225 0.15875,-0.13758 0.254,-0.3175 h 1.58749 q -0.16933,0.52917 -0.52916,0.9525 -0.15875,0.17992 -0.37042,0.34925 -0.21166,0.16933 -0.48683,0.30691 -0.27516,0.13759 -0.635,0.21167 -0.34925,0.0847 -0.78316,0.0847 -0.61383,0 -1.15358,-0.22225 -0.52917,-0.22225 -0.92075,-0.60325 -0.39158,-0.39158 -0.61383,-0.91016 -0.22225,-0.52917 -0.22225,-1.12183 z m 4.18041,-0.58209 q -0.0423,-0.20108 -0.14817,-0.38099 -0.10583,-0.17992 -0.27517,-0.3175 -0.15875,-0.13759 -0.381,-0.22225 -0.21166,-0.0847 -0.46566,-0.0847 -0.51858,0 -0.86783,0.30692 -0.33867,0.29633 -0.45508,0.69849 z"
         style="font-style:normal;font-variant:normal;font-weight:normal;font-stretch:normal;font-family:TTFirsNeue-DemiBold;-inkscape-font-specification:TTFirsNeue-DemiBold;fill:#dfdfdf;fill-opacity:1;stroke-width:0.264584"
         id="path984" />
      <path
         d="m 118.20131,105.42824 h 1.48166 v 2.69874 h 0.0529 q 0.16934,-0.23283 0.41275,-0.42333 0.21167,-0.15875 0.51858,-0.28575 0.3175,-0.13758 0.762,-0.13758 0.51858,0 0.96308,0.20108 0.45508,0.20108 0.79375,0.5715 0.33867,0.37041 0.52917,0.89958 0.20108,0.52916 0.20108,1.18533 0,0.65616 -0.20108,1.18533 -0.1905,0.52916 -0.52917,0.89958 -0.33867,0.37041 -0.79375,0.57149 -0.4445,0.20109 -0.96308,0.20109 -0.4445,0 -0.762,-0.13759 -0.30691,-0.127 -0.51858,-0.28574 -0.24341,-0.1905 -0.41275,-0.42334 h -0.0529 v 0.68792 h -1.48166 z m 1.48166,4.70957 q 0,0.76199 0.381,1.17474 0.39158,0.41275 0.99483,0.41275 0.56091,0 0.94191,-0.41275 0.381,-0.41275 0.381,-1.17474 0,-0.762 -0.381,-1.17475 -0.381,-0.41275 -0.94191,-0.41275 -0.60325,0 -0.99483,0.41275 -0.381,0.41275 -0.381,1.17475 z"
         style="font-style:normal;font-variant:normal;font-weight:normal;font-stretch:normal;font-family:TTFirsNeue-DemiBold;-inkscape-font-specification:TTFirsNeue-DemiBold;fill:#dfdfdf;fill-opacity:1;stroke-width:0.264584"
         id="path986" />
      <path
         d="m 124.39254,107.5449 h 0.68791 v -2.11666 h 3.01624 v 1.26999 h -1.53458 v 0.84667 h 1.21708 v 1.26999 h -1.21708 v 4.02166 h -1.48166 v -4.02166 h -0.68791 z"
         style="font-style:normal;font-variant:normal;font-weight:normal;font-stretch:normal;font-family:TTFirsNeue-DemiBold;-inkscape-font-specification:TTFirsNeue-DemiBold;fill:#dfdfdf;fill-opacity:1;stroke-width:0.264584"
         id="path988" />
      <path
         d="m 128.30174,110.13781 q 0,-0.59267 0.22225,-1.11125 0.22225,-0.52916 0.61383,-0.91016 0.40217,-0.39159 0.94192,-0.61384 0.55033,-0.22224 1.18533,-0.22224 0.635,0 1.17474,0.22224 0.53975,0.22225 0.93133,0.61384 0.40217,0.381 0.62442,0.91016 0.23283,0.51858 0.23283,1.11125 0,0.59266 -0.23283,1.12183 -0.22225,0.51858 -0.62442,0.91016 -0.39158,0.381 -0.93133,0.60325 -0.53974,0.22225 -1.17474,0.22225 -0.635,0 -1.18533,-0.22225 -0.53975,-0.22225 -0.94192,-0.60325 -0.39158,-0.39158 -0.61383,-0.91016 -0.22225,-0.52917 -0.22225,-1.12183 z m 1.53458,0 q 0,0.35983 0.10583,0.65616 0.11642,0.28575 0.30692,0.49742 0.20108,0.20108 0.45508,0.3175 0.26458,0.11641 0.56092,0.11641 0.29633,0 0.55033,-0.11641 0.26458,-0.11642 0.45508,-0.3175 0.20108,-0.21167 0.30692,-0.49742 0.11641,-0.29633 0.11641,-0.65616 0,-0.35984 -0.11641,-0.64558 -0.10584,-0.29634 -0.30692,-0.49742 -0.1905,-0.21167 -0.45508,-0.32808 -0.254,-0.11642 -0.55033,-0.11642 -0.29634,0 -0.56092,0.11642 -0.254,0.11641 -0.45508,0.32808 -0.1905,0.20108 -0.30692,0.49742 -0.10583,0.28574 -0.10583,0.64558 z"
         style="font-style:normal;font-variant:normal;font-weight:normal;font-stretch:normal;font-family:TTFirsNeue-DemiBold;-inkscape-font-specification:TTFirsNeue-DemiBold;fill:#dfdfdf;fill-opacity:1;stroke-width:0.264584"
         id="path990" />
      <path
         d="m 135.06844,107.43907 h 1.48166 v 0.79374 h 0.0529 q 0.0953,-0.254 0.28575,-0.4445 0.15875,-0.16933 0.42333,-0.30691 0.26458,-0.14817 0.66675,-0.14817 h 0.635 v 1.42875 h -0.79375 q -0.60325,0 -0.94192,0.32808 -0.32808,0.32808 -0.32808,0.889 v 2.85749 h -1.48166 z"
         style="font-style:normal;font-variant:normal;font-weight:normal;font-stretch:normal;font-family:TTFirsNeue-DemiBold;-inkscape-font-specification:TTFirsNeue-DemiBold;fill:#dfdfdf;fill-opacity:1;stroke-width:0.264584"
         id="path992" />
      <path
         d="m 139.08265,110.08489 q 0,-0.635 0.1905,-1.143 0.20108,-0.51858 0.53975,-0.88899 0.33866,-0.37042 0.78316,-0.5715 0.45508,-0.20108 0.97367,-0.20108 0.44449,0 0.75141,0.13758 0.3175,0.13758 0.52917,0.29633 0.24341,0.1905 0.41274,0.42333 h 0.0529 v -0.69849 h 1.48166 v 7.4083 h -4.92123 v -1.26999 h 3.43957 v -1.54516 h -0.0529 q -0.16933,0.24341 -0.41274,0.43391 -0.21167,0.15875 -0.52917,0.29633 -0.30692,0.127 -0.75141,0.127 -0.51859,0 -0.97367,-0.20108 -0.4445,-0.20108 -0.78316,-0.5715 -0.33867,-0.37041 -0.53975,-0.87841 -0.1905,-0.51858 -0.1905,-1.15358 z m 1.53458,0 q 0,0.71966 0.381,1.13241 0.39158,0.40217 0.99483,0.40217 0.56091,0 0.94191,-0.40217 0.381,-0.41275 0.381,-1.13241 0,-0.71966 -0.381,-1.12183 -0.381,-0.41275 -0.94191,-0.41275 -0.60325,0 -0.99483,0.41275 -0.381,0.40217 -0.381,1.12183 z"
         style="font-style:normal;font-variant:normal;font-weight:normal;font-stretch:normal;font-family:TTFirsNeue-DemiBold;-inkscape-font-specification:TTFirsNeue-DemiBold;fill:#dfdfdf;fill-opacity:1;stroke-width:0.264584"
         id="path994" />
      <path
         d="m 145.6443,110.13781 q 0,-0.59267 0.22225,-1.11125 0.22225,-0.52916 0.61383,-0.91016 0.39158,-0.39159 0.92075,-0.61384 0.53974,-0.22224 1.15357,-0.22224 0.635,0 1.15358,0.22224 0.52917,0.22225 0.91017,0.61384 0.381,0.39158 0.58208,0.91016 0.21167,0.51858 0.21167,1.11125 v 0.3175 h -4.23332 q 0.0423,0.25399 0.15875,0.48683 0.12699,0.23283 0.30691,0.41275 0.1905,0.16933 0.42333,0.27516 0.23284,0.0953 0.48683,0.0953 0.35984,0 0.58209,-0.0953 0.23283,-0.10583 0.381,-0.22225 0.15874,-0.13758 0.25399,-0.3175 h 1.5875 q -0.16933,0.52917 -0.52917,0.9525 -0.15875,0.17992 -0.37041,0.34925 -0.21167,0.16933 -0.48683,0.30691 -0.27517,0.13759 -0.635,0.21167 -0.34925,0.0847 -0.78317,0.0847 -0.61383,0 -1.15357,-0.22225 -0.52917,-0.22225 -0.92075,-0.60325 -0.39158,-0.39158 -0.61383,-0.91016 -0.22225,-0.52917 -0.22225,-1.12183 z m 4.1804,-0.58209 q -0.0423,-0.20108 -0.14817,-0.38099 -0.10583,-0.17992 -0.27516,-0.3175 -0.15875,-0.13759 -0.381,-0.22225 -0.21167,-0.0847 -0.46567,-0.0847 -0.51858,0 -0.86783,0.30692 -0.33866,0.29633 -0.45508,0.69849 z"
         style="font-style:normal;font-variant:normal;font-weight:normal;font-stretch:normal;font-family:TTFirsNeue-DemiBold;-inkscape-font-specification:TTFirsNeue-DemiBold;fill:#dfdfdf;fill-opacity:1;stroke-width:0.264584"
         id="path996" />
    </g>
  </g>
</svg>
